<?xml version="1.0" standalone="no"?>
<!DOCTYPE svg PUBLIC "-//W3C//DTD SVG 20010904//EN"
 "http://www.w3.org/TR/2001/REC-SVG-20010904/DTD/svg10.dtd">
<svg version="1.0" xmlns="http://www.w3.org/2000/svg"
 width="512.000000pt" height="512.000000pt" viewBox="0 0 512.000000 512.000000"
 preserveAspectRatio="xMidYMid meet">

<g transform="translate(0.000000,512.000000) scale(0.100000,-0.100000)"
fill="#000000" stroke="none">
<path d="M2746 4069 c-457 -186 -841 -349 -854 -362 -54 -49 -52 -16 -52
-1003 l0 -916 -27 6 c-73 18 -232 18 -309 1 -219 -48 -435 -210 -531 -398 -30
-61 -63 -186 -63 -243 0 -191 118 -349 310 -415 92 -32 254 -32 363 -1 209 59
394 205 485 380 70 135 66 75 72 992 l5 834 655 268 c360 148 656 268 657 268
2 0 3 -229 3 -508 l0 -509 -67 15 c-151 31 -353 -8 -508 -100 -98 -59 -230
-194 -278 -285 -21 -40 -44 -94 -52 -120 -80 -264 60 -505 331 -569 90 -21
242 -14 339 16 204 63 385 211 470 385 68 138 65 68 65 1341 l0 1151 -23 34
c-25 38 -97 79 -137 79 -14 -1 -398 -154 -854 -341z m712 -264 c-3 -2 -1270
-519 -1300 -530 -17 -7 -18 2 -18 107 l0 115 658 269 657 269 3 -114 c1 -62 1
-115 0 -116z m-78 -1637 c79 -41 100 -120 56 -215 -86 -183 -354 -312 -516
-247 -122 49 -113 204 20 334 129 128 327 185 440 128z m-1597 -691 c148 -113
-26 -383 -290 -452 -131 -34 -225 -7 -270 79 -46 88 52 254 202 341 87 51 141
66 236 63 76 -3 90 -6 122 -31z"/>
<path d="M632 3443 c-18 -11 -154 -164 -327 -371 -314 -377 -319 -385 -296
-461 15 -50 566 -717 619 -748 45 -28 84 -29 139 -4 72 33 104 129 66 197 -10
17 -121 156 -248 308 -126 152 -231 280 -233 284 -1 4 105 136 235 293 131
157 244 297 251 312 55 122 -88 254 -206 190z"/>
<path d="M4352 3443 c-65 -32 -99 -118 -72 -184 7 -17 121 -160 252 -317 131
-158 237 -290 236 -294 -2 -4 -106 -132 -233 -284 -126 -152 -238 -291 -247
-308 -39 -68 -7 -164 65 -197 55 -25 94 -24 139 4 53 31 604 698 619 748 23
76 18 84 -296 461 -173 207 -309 360 -327 371 -40 21 -93 22 -136 0z"/>
</g>
</svg>
